HIERARCHY
ROOT Hips
{
    OFFSET 0.000000 0.000000 0.000000
    CHANNELS 6 Xposition Yposition Zposition Zrotation Xrotation Yrotation
    JOINT Spine
    {
        OFFSET -0.000002 7.912555 -0.000023
        CHANNELS 3 Zrotation Xrotation Yrotation
        JOINT Spine1
        {
            OFFSET -0.000002 20.967003 -0.000017
            CHANNELS 3 Zrotation Xrotation Yrotation
            JOINT Neck
            {
                OFFSET 0.000007 22.149519 0.000033
                CHANNELS 3 Zrotation Xrotation Yrotation
                JOINT Head
                {
                    OFFSET -0.000001 14.135933 1.902213
                    CHANNELS 3 Zrotation Xrotation Yrotation
                    End Site
                    {
                        OFFSET 0.000000 19.022141 0.000000
                    }
                }
            }
            JOINT LeftShoulder
            {
                OFFSET 3.797829 16.121201 -0.677323
                CHANNELS 3 Zrotation Xrotation Yrotation
                JOINT LeftArm
                {
                    OFFSET 11.576591 -0.000001 0.000003
                    CHANNELS 3 Zrotation Xrotation Yrotation
                    JOINT LeftForeArm
                    {
                        OFFSET 29.906420 0.000009 -0.000001
                        CHANNELS 3 Zrotation Xrotation Yrotation
                        JOINT LeftHand
                        {
                            OFFSET 24.318331 0.000003 -0.000010
                            CHANNELS 3 Zrotation Xrotation Yrotation
                            JOINT LeftHandThumb1
                            {
                                OFFSET 1.987815 -2.258873 3.162438
                                CHANNELS 3 Zrotation Xrotation Yrotation
                                JOINT LeftHandThumb2
                                {
                                    OFFSET 3.002307 0.000012 0.000001
                                    CHANNELS 3 Zrotation Xrotation Yrotation
                                    JOINT LeftHandThumb3
                                    {
                                        OFFSET 2.566088 0.000012 0.000001
                                        CHANNELS 3 Zrotation Xrotation Yrotation
                                        End Site
                                        {
                                            OFFSET 2.440626 0.000000 0.000000
                                        }
                                    }
                                }
                            }
                            JOINT LeftHandIndex1
                            {
                                OFFSET 8.131962 -0.000007 3.162420
                                CHANNELS 3 Zrotation Xrotation Yrotation
                                JOINT LeftHandIndex2
                                {
                                    OFFSET 4.517756 -0.000012 -0.000012
                                    CHANNELS 3 Zrotation Xrotation Yrotation
                                    JOINT LeftHandIndex3
                                    {
                                        OFFSET 2.258882 0.000012 0.000009
                                        CHANNELS 3 Zrotation Xrotation Yrotation
                                        End Site
                                        {
                                            OFFSET 2.148437 0.000000 0.000000
                                        }
                                    }
                                }
                            }
                            JOINT LeftHandMiddle1
                            {
                                OFFSET 8.131966 0.000003 1.048119
                                CHANNELS 3 Zrotation Xrotation Yrotation
                                JOINT LeftHandMiddle2
                                {
                                    OFFSET 4.969539 0.000018 0.000017
                                    CHANNELS 3 Zrotation Xrotation Yrotation
                                    JOINT LeftHandMiddle3
                                    {
                                        OFFSET 2.710657 0.000007 0.000006
                                        CHANNELS 3 Zrotation Xrotation Yrotation
                                        End Site
                                        {
                                            OFFSET 2.578118 0.000000 0.000000
                                        }
                                    }
                                }
                            }
                            JOINT LeftHandRing1
                            {
                                OFFSET 7.680196 0.000010 -1.048114
                                CHANNELS 3 Zrotation Xrotation Yrotation
                                JOINT LeftHandRing2
                                {
                                    OFFSET 4.517755 -0.000010 -0.000014
                                    CHANNELS 3 Zrotation Xrotation Yrotation
                                    JOINT LeftHandRing3
                                    {
                                        OFFSET 2.258881 0.000011 0.000011
                                        CHANNELS 3 Zrotation Xrotation Yrotation
                                        End Site
                                        {
                                            OFFSET 2.148437 0.000000 0.000000
                                        }
                                    }
                                }
                            }
                            JOINT LeftHandPinky1
                            {
                                OFFSET 7.228411 -0.000007 -3.162446
                                CHANNELS 3 Zrotation Xrotation Yrotation
                                JOINT LeftHandPinky2
                                {
                                    OFFSET 3.614204 0.000000 -0.000004
                                    CHANNELS 3 Zrotation Xrotation Yrotation
                                    JOINT LeftHandPinky3
                                    {
                                        OFFSET 1.807106 0.000012 0.000018
                                        CHANNELS 3 Zrotation Xrotation Yrotation
                                        End Site
                                        {
                                            OFFSET 1.718745 0.000000 0.000000
                                        }
                                    }
                                }
                            }
                        }
                    }
                }
            }
            JOINT RightShoulder
            {
                OFFSET -3.797831 16.121202 -0.677286
                CHANNELS 3 Zrotation Xrotation Yrotation
                JOINT RightArm
                {
                    OFFSET -11.576587 -0.000003 0.000003
                    CHANNELS 3 Zrotation Xrotation Yrotation
                    JOINT RightForeArm
                    {
                        OFFSET -29.906410 0.000012 -0.000003
                        CHANNELS 3 Zrotation Xrotation Yrotation
                        JOINT RightHand
                        {
                            OFFSET -24.318336 0.000010 0.000009
                            CHANNELS 3 Zrotation Xrotation Yrotation
                            JOINT RightHandThumb1
                            {
                                OFFSET -1.987823 -2.258880 3.162438
                                CHANNELS 3 Zrotation Xrotation Yrotation
                                JOINT RightHandThumb2
                                {
                                    OFFSET -3.002299 -0.000004 0.000005
                                    CHANNELS 3 Zrotation Xrotation Yrotation
                                    JOINT RightHandThumb3
                                    {
                                        OFFSET -2.566076 -0.000003 -0.000002
                                        CHANNELS 3 Zrotation Xrotation Yrotation
                                        End Site
                                        {
                                            OFFSET -2.440626 0.000000 0.000000
                                        }
                                    }
                                }
                            }
                            JOINT RightHandIndex1
                            {
                                OFFSET -8.131960 0.000002 3.162432
                                CHANNELS 3 Zrotation Xrotation Yrotation
                                JOINT RightHandIndex2
                                {
                                    OFFSET -4.517778 -0.000001 0.000013
                                    CHANNELS 3 Zrotation Xrotation Yrotation
                                    JOINT RightHandIndex3
                                    {
                                        OFFSET -2.258888 0.000005 0.000007
                                        CHANNELS 3 Zrotation Xrotation Yrotation
                                        End Site
                                        {
                                            OFFSET -2.148437 0.000000 0.000000
                                        }
                                    }
                                }
                            }
                            JOINT RightHandMiddle1
                            {
                                OFFSET -8.131976 0.000003 1.048130
                                CHANNELS 3 Zrotation Xrotation Yrotation
                                JOINT RightHandMiddle2
                                {
                                    OFFSET -4.969540 -0.000003 0.000001
                                    CHANNELS 3 Zrotation Xrotation Yrotation
                                    JOINT RightHandMiddle3
                                    {
                                        OFFSET -2.710650 -0.000002 -0.000004
                                        CHANNELS 3 Zrotation Xrotation Yrotation
                                        End Site
                                        {
                                            OFFSET -2.578118 0.000000 0.000000
                                        }
                                    }
                                }
                            }
                            JOINT RightHandRing1
                            {
                                OFFSET -7.680203 -0.000003 -1.048115
                                CHANNELS 3 Zrotation Xrotation Yrotation
                                JOINT RightHandRing2
                                {
                                    OFFSET -4.517777 -0.000002 0.000011
                                    CHANNELS 3 Zrotation Xrotation Yrotation
                                    JOINT RightHandRing3
                                    {
                                        OFFSET -2.258889 -0.000000 0.000005
                                        CHANNELS 3 Zrotation Xrotation Yrotation
                                        End Site
                                        {
                                            OFFSET -2.148437 0.000000 0.000000
                                        }
                                    }
                                }
                            }
                            JOINT RightHandPinky1
                            {
                                OFFSET -7.228416 -0.000001 -3.162432
                                CHANNELS 3 Zrotation Xrotation Yrotation
                                JOINT RightHandPinky2
                                {
                                    OFFSET -3.614213 -0.000001 0.000005
                                    CHANNELS 3 Zrotation Xrotation Yrotation
                                    JOINT RightHandPinky3
                                    {
                                        OFFSET -1.807086 0.000001 -0.000009
                                        CHANNELS 3 Zrotation Xrotation Yrotation
                                        End Site
                                        {
                                            OFFSET -1.718745 0.000000 0.000000
                                        }
                                    }
                                }
                            }
                        }
                    }
                }
            }
        }
    }
    JOINT LeftUpLeg
    {
        OFFSET 9.511071 0.000003 -0.000008
        CHANNELS 3 Zrotation Xrotation Yrotation
        JOINT LeftLeg
        {
            OFFSET 0.000006 -43.875641 0.000019
            CHANNELS 3 Zrotation Xrotation Yrotation
            JOINT LeftFoot
            {
                OFFSET 0.000003 -35.354160 0.000003
                CHANNELS 3 Zrotation Xrotation Yrotation
                JOINT LeftToeBase
                {
                    OFFSET 0.000004 -6.182193 14.266592
                    CHANNELS 3 Zrotation Xrotation Yrotation
                    End Site
                    {
                        OFFSET 0.000000 0.000000 3.804428
                    }
                }
            }
        }
    }
    JOINT RightUpLeg
    {
        OFFSET -9.511071 -0.000003 0.000008
        CHANNELS 3 Zrotation Xrotation Yrotation
        JOINT RightLeg
        {
            OFFSET -0.000005 -43.875633 -0.000015
            CHANNELS 3 Zrotation Xrotation Yrotation
            JOINT RightFoot
            {
                OFFSET -0.000004 -35.354164 -0.000013
                CHANNELS 3 Zrotation Xrotation Yrotation
                JOINT RightToeBase
                {
                    OFFSET -0.000000 -6.182192 14.266604
                    CHANNELS 3 Zrotation Xrotation Yrotation
                    End Site
                    {
                        OFFSET 0.000000 0.000000 3.804428
                    }
                }
            }
        }
    }
}
MOTION
Frames:    4
Frame Time:    0.002778
31.803951    90.904778    602.405823    2.937486    -7.331407    -157.878799    -0.203375    5.351164    1.868519    -1.016872    5.350361    1.944377    4.172091    -0.911443    -18.611776    4.172091    -0.911441    -18.611774    5.312831    -2.446265    0.228669    -61.828636    9.639632    -21.232834    -35.116901    -1.377241    -49.226364    -2.303783    -0.597490    7.593547    47.448208    38.866440    -34.355030    -34.999996    -0.000003    0.000001    -0.000000    0.000000    -0.000000    -0.000003    9.999997    -0.000001    -0.000000    0.000000    -0.000000    -0.000000    0.000000    -0.000000    -0.000000    0.000000    -0.000000    -0.000000    0.000000    -0.000000    -0.000000    0.000000    -0.000000    -0.000000    0.000000    -0.000000    -0.000000    0.000000    -0.000000    -0.000000    0.000000    -0.000000    0.000000    -10.000000    0.000003    -0.000000    0.000000    -0.000000    -0.000000    0.000000    -0.000000    -6.765640    2.165208    1.553682    56.987705    -12.234056    17.220661    13.635470    22.922560    72.859566    -63.533028    15.377929    -7.601192    -47.448208    38.866428    34.355030    34.999996    0.000002    0.000006    -0.000000    0.000000    -0.000000    0.000002    10.000003    0.000002    -0.000000    0.000000    -0.000000    -0.000000    0.000000    -0.000000    -0.000000    0.000000    -0.000000    -0.000000    0.000000    -0.000000    -0.000000    0.000000    -0.000000    -0.000000    0.000000    -0.000000    -0.000000    0.000000    -0.000000    -0.000000    0.000000    -0.000000    0.000005    -9.999997    0.000007    -0.000000    0.000000    -0.000000    -0.000000    0.000000    -0.000000    12.764067    -24.197920    0.439878    0.000001    30.668573    0.000002    -12.200275    -15.011012    -2.128261    -0.000000    -0.699426    -0.000002    -14.443023    -24.406977    -3.183768    -0.000000    39.150272    0.000001    14.445732    -16.547169    -13.712708    0.000000    -3.724956    0.000000    
31.782251    90.918060    602.401794    2.955900    -7.319377    -157.897980    -0.205626    5.349294    1.825375    -1.028128    5.348471    1.902051    4.183851    -0.933504    -18.569195    4.183850    -0.933506    -18.569195    5.302988    -2.455289    0.223631    -61.808815    9.642562    -21.283852    -35.123959    -1.378182    -49.245476    -2.275086    -0.593201    7.579190    47.448219    38.866428    -34.355030    -35.000008    0.000001    -0.000002    -0.000000    0.000000    -0.000000    -0.000007    9.999997    0.000001    -0.000000    0.000000    -0.000000    -0.000000    0.000000    -0.000000    -0.000000    0.000000    -0.000000    -0.000000    0.000000    -0.000000    -0.000000    0.000000    -0.000000    -0.000000    0.000000    -0.000000    -0.000000    0.000000    -0.000000    -0.000000    0.000000    -0.000000    0.000003    -9.999999    -0.000001    -0.000000    0.000000    -0.000000    -0.000000    0.000000    -0.000000    -6.815167    2.215633    1.551327    57.165974    -11.859010    16.879055    13.531154    22.937832    72.761757    -63.554977    15.353637    -7.580787    -47.448223    38.866428    34.355042    35.000004    0.000001    0.000006    -0.000000    0.000000    -0.000000    0.000000    9.999995    0.000005    -0.000000    0.000000    -0.000000    -0.000000    0.000000    -0.000000    -0.000000    0.000000    -0.000000    -0.000000    0.000000    -0.000000    -0.000000    0.000000    -0.000000    -0.000000    0.000000    -0.000000    -0.000000    0.000000    -0.000000    -0.000000    0.000000    -0.000000    -0.000000    -10.000001    -0.000001    -0.000000    0.000000    -0.000000    -0.000000    0.000000    -0.000000    12.777199    -24.152298    0.443471    0.000003    30.616467    -0.000003    -12.216240    -15.015452    -2.116775    0.000000    -0.700641    0.000002    -14.420264    -24.352373    -3.166804    -0.000003    39.049442    0.000006    14.444255    -16.519014    -13.713430    -0.000000    -3.734612    -0.000000    
31.762144    90.932808    602.398376    2.975278    -7.307693    -157.917999    -0.208450    5.347162    1.781899    -1.042246    5.346316    1.859595    4.197619    -0.951499    -18.533030    4.197622    -0.951495    -18.533035    5.289225    -2.463794    0.222211    -61.793499    9.634316    -21.331495    -35.138603    -1.386646    -49.266026    -2.260347    -0.591021    7.568140    47.448204    38.866428    -34.355030    -35.000000    -0.000003    -0.000001    -0.000000    0.000000    -0.000000    0.000000    10.000001    -0.000003    -0.000000    0.000000    -0.000000    -0.000000    0.000000    -0.000000    -0.000000    0.000000    -0.000000    -0.000000    0.000000    -0.000000    -0.000000    0.000000    -0.000000    -0.000000    0.000000    -0.000000    -0.000000    0.000000    -0.000000    -0.000000    0.000000    -0.000000    -0.000010    -10.000003    0.000001    -0.000000    0.000000    -0.000000    -0.000000    0.000000    -0.000000    -6.855913    2.249486    1.548679    57.357914    -11.490884    16.543343    13.445972    22.952227    72.675812    -63.560867    15.313649    -7.558527    -47.448231    38.866428    34.355057    35.000008    -0.000004    -0.000002    -0.000000    0.000000    -0.000000    0.000001    10.000001    0.000012    -0.000000    0.000000    -0.000000    -0.000000    0.000000    -0.000000    -0.000000    0.000000    -0.000000    -0.000000    0.000000    -0.000000    -0.000000    0.000000    -0.000000    -0.000000    0.000000    -0.000000    -0.000000    0.000000    -0.000000    -0.000000    0.000000    -0.000000    0.000005    -9.999993    0.000002    -0.000000    0.000000    -0.000000    -0.000000    0.000000    -0.000000    12.791656    -24.107231    0.447593    0.000002    30.563383    0.000000    -12.228354    -15.018213    -2.105686    -0.000000    -0.700717    0.000001    -14.394403    -24.299416    -3.146339    0.000002    38.948994    -0.000003    14.438818    -16.494345    -13.708058    0.000000    -3.752818    -0.000000    
31.742304    90.947273    602.395020    2.995366    -7.297231    -157.938980    -0.211359    5.345578    1.739323    -1.056794    5.344713    1.818078    4.216671    -0.970160    -18.495005    4.216670    -0.970160    -18.495005    5.271120    -2.472568    0.217602    -61.779388    9.624985    -21.379711    -35.154484    -1.394632    -49.286880    -2.265852    -0.591335    7.551836    47.448208    38.866428    -34.355030    -35.000004    -0.000000    -0.000005    -0.000000    0.000000    -0.000000    -0.000000    10.000000    0.000005    -0.000000    0.000000    -0.000000    -0.000000    0.000000    -0.000000    -0.000000    0.000000    -0.000000    -0.000000    0.000000    -0.000000    -0.000000    0.000000    -0.000000    -0.000000    0.000000    -0.000000    -0.000000    0.000000    -0.000000    -0.000000    0.000000    -0.000000    -0.000003    -10.000000    0.000003    -0.000000    0.000000    -0.000000    -0.000000    0.000000    -0.000000    -6.901097    2.283679    1.551812    57.555981    -11.096863    16.216179    13.406964    22.951458    72.566208    -63.556385    15.322978    -7.563327    -47.448212    38.866440    34.355030    34.999992    -0.000004    0.000002    -0.000000    0.000000    -0.000000    -0.000002    9.999998    -0.000002    -0.000000    0.000000    -0.000000    -0.000000    0.000000    -0.000000    -0.000000    0.000000    -0.000000    -0.000000    0.000000    -0.000000    -0.000000    0.000000    -0.000000    -0.000000    0.000000    -0.000000    -0.000000    0.000000    -0.000000    -0.000000    0.000000    -0.000000    -0.000000    -10.000000    -0.000002    -0.000000    0.000000    -0.000000    -0.000000    0.000000    -0.000000    12.807302    -24.062952    0.454392    -0.000001    30.507689    -0.000004    -12.239999    -15.017453    -2.093307    0.000000    -0.699975    0.000003    -14.367532    -24.248678    -3.127082    0.000001    38.847168    -0.000001    14.431870    -16.463696    -13.710537    -0.000000    -3.767773    -0.000000    
